<svg width="49" height="46" viewBox="0 0 49 46" fill="none" xmlns="http://www.w3.org/2000/svg">
<g clip-path="url(#clip0_129_98)">
<path d="M8.61583 19.7473L7.04988 21.7464H15.584C16.0128 21.7464 16.0087 21.8959 15.7984 22.1642C15.584 22.4364 15.2268 22.9117 15.0103 23.1877C14.9001 23.3276 14.6959 23.5845 15.3595 23.5845H18.8507L19.8818 22.262C20.5228 21.4455 19.9389 19.7473 17.6461 19.7473H8.61583ZM23.324 19.7473L20.3125 23.5845H31.3171L34.3245 19.7473H29.8288L28.1076 21.9438H26.0966L27.8238 19.7473H23.326H23.324ZM35.7884 19.7473L32.779 23.5845H37.5442L40.5495 19.7473H35.7904H35.7884ZM9.56317 22.239L6.419 26.2525H14.0834C16.6151 26.2525 18.0279 24.6348 18.4628 24.0751H13.2361C12.5705 24.0751 12.7747 23.8202 12.885 23.6784C13.1034 23.4043 13.4628 22.9347 13.6771 22.6626C13.8895 22.3942 13.8956 22.2409 13.4628 22.2409H9.56317V22.239ZM0 24.0771V24.5409H6.93758L7.29692 24.0771H0ZM19.9308 24.0771L18.2239 26.2544H22.7217L24.4285 24.0771H19.9308ZM26.4335 24.0771L24.7266 26.2544H29.2244L30.9312 24.0771H26.4335ZM32.391 24.0771C32.391 24.0771 32.0664 24.4987 31.9051 24.7019C31.3416 25.4187 31.8378 26.2544 33.6814 26.2544H40.9048L42.6075 24.0771H32.391ZM43.4324 24.0771L43.071 24.5409H49V24.0771H43.4324ZM0 24.9357V25.3957H6.26383L6.62725 24.9357H0ZM42.7586 24.9357L42.4013 25.3957H49V24.9357H42.7586ZM0 25.7925V26.2525H5.59417L5.9535 25.7925H0ZM42.089 25.7925L41.7276 26.2525H49V25.7925H42.089Z" fill="#EAE0E0"/>
</g>
<defs>
<clipPath id="clip0_129_98">
<rect width="49" height="46" fill="white"/>
</clipPath>
</defs>
</svg>
