<svg xmlns="http://www.w3.org/2000/svg" width="490" height="53" fill="none" viewBox="0 0 490 53">
  <path fill="#000" d="M8.838 14.179c.78-4.419 2.6-7.668 5.459-9.748 2.859-2.08 6.801-3.054 11.827-2.924l-1.3 7.668c-2.166-.043-3.769.325-4.809 1.105s-1.733 2.188-2.08 4.224l-.26 1.495h6.304l-1.3 7.473h-6.303L11.307 52H2.144l5.07-28.528h-4.16l1.3-7.474h4.159l.325-1.819ZM41.182 3.911 32.67 52h-9.162L32.02 3.911h9.162ZM57.71 52.585c-3.076 0-5.805-.628-8.188-1.885-2.34-1.256-4.159-3.032-5.458-5.328-1.3-2.297-1.95-4.94-1.95-7.929 0-4.072.953-7.776 2.86-11.112 1.949-3.38 4.592-6.043 7.928-7.993 3.379-1.95 7.126-2.924 11.242-2.924 3.076 0 5.805.65 8.188 1.95 2.426 1.256 4.289 3.032 5.589 5.328 1.343 2.296 2.014 4.939 2.014 7.928 0 4.116-.975 7.841-2.924 11.177-1.95 3.336-4.636 5.979-8.058 7.928-3.38 1.907-7.127 2.86-11.243 2.86Zm1.235-7.798c2.166 0 4.137-.629 5.914-1.885 1.776-1.256 3.162-2.924 4.159-5.004a15.005 15.005 0 0 0 1.494-6.563c0-2.6-.736-4.592-2.21-5.979-1.429-1.43-3.248-2.144-5.458-2.144s-4.18.628-5.913 1.884c-1.69 1.257-3.011 2.946-3.965 5.07a15.721 15.721 0 0 0-1.43 6.628c0 2.556.672 4.527 2.015 5.913 1.387 1.386 3.185 2.08 5.394 2.08Zm80.431-28.788L122.479 52h-9.877l-2.08-25.02L99.475 52h-9.878l-4.159-36.002h9.163l1.56 27.424 11.762-27.423h9.617l1.95 27.358 11.112-27.358h8.773Zm54.831 0L177.31 52h-9.878l-2.079-25.02L154.305 52h-9.877l-4.159-36.002h9.163l1.559 27.424 11.762-27.423h9.618l1.95 27.358 11.112-27.358h8.773ZM252.476 34c.65-3.727 1.971-6.976 3.964-9.748 1.993-2.816 4.462-4.983 7.408-6.499 2.99-1.56 6.217-2.34 9.683-2.34 4.462 0 7.95 1.105 10.463 3.315 2.556 2.21 3.985 5.35 4.289 9.423h-9.813c-.26-1.56-.931-2.773-2.015-3.64-1.083-.91-2.534-1.364-4.354-1.364-2.599 0-4.83.953-6.693 2.86-1.819 1.862-3.033 4.526-3.639 7.992-.217 1.213-.325 2.253-.325 3.12 0 2.469.607 4.375 1.82 5.718 1.213 1.3 2.902 1.95 5.068 1.95 3.64 0 6.326-1.647 8.058-4.94h9.813c-1.689 3.9-4.224 6.998-7.603 9.294-3.336 2.296-7.192 3.444-11.567 3.444-4.549 0-8.188-1.278-10.918-3.834-2.686-2.6-4.029-6.109-4.029-10.528 0-1.343.13-2.75.39-4.224Zm55.858-30.09L299.821 52h-9.162l8.513-48.089h9.162Zm16.527 48.674c-3.076 0-5.805-.628-8.188-1.885-2.339-1.256-4.159-3.032-5.458-5.328-1.3-2.297-1.95-4.94-1.95-7.929 0-4.072.953-7.776 2.859-11.112 1.95-3.38 4.593-6.043 7.929-7.993 3.379-1.95 7.126-2.924 11.242-2.924 3.076 0 5.805.65 8.188 1.95 2.426 1.256 4.289 3.032 5.589 5.328 1.343 2.296 2.014 4.939 2.014 7.928 0 4.116-.975 7.841-2.924 11.177-1.95 3.336-4.636 5.979-8.058 7.928-3.379 1.907-7.127 2.86-11.243 2.86Zm1.235-7.798c2.166 0 4.137-.629 5.914-1.885 1.776-1.256 3.162-2.924 4.159-5.004a15.01 15.01 0 0 0 1.494-6.563c0-2.6-.736-4.592-2.209-5.979-1.43-1.43-3.249-2.144-5.459-2.144-2.209 0-4.181.628-5.913 1.884-1.69 1.257-3.011 2.946-3.964 5.07-.954 2.079-1.43 4.288-1.43 6.628 0 2.556.671 4.527 2.014 5.913 1.387 1.386 3.185 2.08 5.394 2.08Zm36.697-3.9c-.044.26-.065.607-.065 1.04 0 .867.238 1.495.714 1.885.52.346 1.365.52 2.535.52h4.289L368.901 52h-5.783c-6.499 0-9.748-2.708-9.748-8.123 0-1.04.086-2.058.26-3.054l3.054-17.351h-4.289l1.3-7.474h4.354l1.559-8.902h9.163l-1.559 8.902h7.993l-1.3 7.474h-8.058l-3.054 17.416Zm39.36-25.408c3.553 0 6.369 1.018 8.448 3.054 2.123 2.036 3.185 4.895 3.185 8.578 0 1.386-.109 2.643-.325 3.769L409.692 52h-9.033l3.509-19.885c.13-.78.195-1.538.195-2.275 0-2.166-.585-3.812-1.755-4.939-1.126-1.126-2.751-1.69-4.873-1.69-2.427 0-4.484.737-6.174 2.21-1.69 1.43-2.816 3.488-3.379 6.174L384.543 52h-9.163l8.513-48.089h9.163l-2.925 16.506c1.473-1.516 3.25-2.707 5.329-3.574a16.816 16.816 0 0 1 6.693-1.364Zm38.415-.065c4.592 0 8.231 1.278 10.917 3.834 2.686 2.512 4.029 5.913 4.029 10.202 0 1.387-.108 2.621-.324 3.704-.26 1.3-.542 2.427-.845 3.38h-26.319a9.88 9.88 0 0 0-.065 1.3c0 2.252.65 4.028 1.95 5.328 1.343 1.257 3.097 1.885 5.263 1.885 1.82 0 3.379-.39 4.679-1.17a9.926 9.926 0 0 0 3.249-3.184h9.813c-1.603 3.465-4.094 6.325-7.473 8.578-3.336 2.21-7.127 3.314-11.372 3.314-4.593 0-8.275-1.3-11.048-3.9-2.773-2.599-4.159-6.13-4.159-10.592 0-1.3.13-2.664.39-4.094.65-3.726 1.971-6.996 3.964-9.812 2.036-2.816 4.549-4.983 7.538-6.499 2.99-1.516 6.261-2.274 9.813-2.274Zm5.589 15.596c.086-.693.13-1.191.13-1.495 0-2.08-.672-3.704-2.015-4.873-1.343-1.17-3.097-1.755-5.264-1.755-2.296 0-4.354.736-6.173 2.21-1.82 1.429-3.098 3.4-3.834 5.913h17.156Zm26.396 21.575c-2.643 0-5.048-.433-7.214-1.3-2.122-.91-3.812-2.144-5.068-3.704-1.214-1.603-1.82-3.423-1.82-5.459 0-.303.043-.801.13-1.494h8.838c-.13 1.516.325 2.75 1.365 3.704 1.039.91 2.512 1.364 4.418 1.364 1.733 0 3.163-.303 4.289-.91 1.17-.65 1.755-1.58 1.755-2.794 0-1.083-.541-1.95-1.625-2.599-1.039-.65-2.707-1.386-5.003-2.21-2.296-.823-4.203-1.624-5.719-2.404A11.692 11.692 0 0 1 463 31.53c-1.083-1.386-1.625-3.14-1.625-5.263 0-2.123.607-4.007 1.82-5.654 1.256-1.646 2.989-2.924 5.199-3.834 2.209-.91 4.744-1.364 7.603-1.364 2.729 0 5.134.454 7.213 1.364 2.08.91 3.683 2.188 4.809 3.834 1.17 1.603 1.755 3.445 1.755 5.524 0 .52-.022.91-.065 1.17h-8.448c.13-1.517-.304-2.73-1.3-3.64-.997-.91-2.448-1.364-4.354-1.364-1.56 0-2.838.347-3.834 1.04-.997.65-1.495 1.538-1.495 2.664 0 1.127.563 2.058 1.69 2.794 1.126.694 2.859 1.473 5.199 2.34 2.339.91 4.202 1.755 5.588 2.534 1.43.737 2.665 1.777 3.704 3.12 1.04 1.3 1.56 2.946 1.56 4.938 0 2.21-.672 4.138-2.015 5.784s-3.184 2.903-5.523 3.77c-2.34.866-4.982 1.299-7.928 1.299Z"/>
  <path fill="#BF2828" d="M211.805 12.138c-2.53 0-5.002.74-7.106 2.125a12.65 12.65 0 0 0-4.71 5.659 12.44 12.44 0 0 0-.728 7.285 12.562 12.562 0 0 0 3.5 6.456l18.898 18.632a1.593 1.593 0 0 0 1.122.459 1.6 1.6 0 0 0 1.122-.46l18.898-18.634a12.514 12.514 0 0 0 3.598-8.872 12.517 12.517 0 0 0-3.745-8.812 12.882 12.882 0 0 0-8.938-3.693 12.886 12.886 0 0 0-8.999 3.548l-1.936 1.906-1.933-1.906a12.802 12.802 0 0 0-4.15-2.734 12.936 12.936 0 0 0-4.893-.959Z"/>
</svg>
