<svg width="35" height="35" viewBox="0 0 35 35" fill="none" xmlns="http://www.w3.org/2000/svg">
<g clip-path="url(#clip0_129_86)">
<path d="M1.62858 6.82499C0.729435 6.82499 0 7.55404 0 8.45357V27.1764C0 28.0758 0.72954 28.805 1.62858 28.805H33.3714C34.2706 28.805 35 28.0759 35 27.1764V8.45354C35 7.55414 34.2705 6.82495 33.3714 6.82495H1.62855L1.62858 6.82499ZM11.4767 9.47078C13.4745 9.47078 15.3094 10.1658 16.7497 11.3269C15.5379 12.4111 14.6341 13.8357 14.1881 15.4503H14.887C15.2986 14.1183 16.0463 12.9323 17.0319 11.9919C18.0174 12.9323 18.7651 14.1183 19.1767 15.4503H19.8866C19.4344 13.8442 18.5293 12.4281 17.3185 11.3509C18.7615 10.1752 20.6036 9.47074 22.61 9.47074C27.2402 9.47074 30.9936 13.2246 30.9936 17.8554C30.9936 22.4863 27.2402 26.2402 22.61 26.2402C20.5702 26.2402 18.6998 25.5121 17.2462 24.3009C18.5465 23.1697 19.5051 21.6533 19.9435 19.9281H19.2598C18.8706 21.3761 18.0871 22.6639 17.0318 23.6709C15.9766 22.6639 15.1942 21.3761 14.805 19.9281H14.1542C14.5951 21.6283 15.5412 23.1235 16.8218 24.2441C15.3709 25.4402 13.5079 26.1592 11.4767 26.1592C6.84652 26.1592 3.09312 22.4234 3.09312 17.815C3.09312 13.2065 6.84652 9.47078 11.4767 9.47078ZM21.9811 15.365C20.9737 15.365 19.9937 16.2457 19.9937 17.8992C19.9937 18.9957 20.5231 19.7192 21.5644 19.7192C21.8588 19.7193 22.3278 19.5989 22.3278 19.5989L22.4831 18.6408C22.4831 18.6408 22.0551 18.8573 21.7612 18.8573C21.1423 18.8573 20.8939 18.3813 20.8939 17.8697C20.8939 16.8318 21.4265 16.2607 22.0194 16.2607C22.464 16.2607 22.8211 16.5123 22.8211 16.5123L22.9633 15.5804C22.9633 15.5804 22.4347 15.365 21.9811 15.365ZM30.45 15.4459L29.5739 15.4481L29.3858 16.6009C29.3858 16.6009 29.0564 16.1536 28.5414 16.1536C27.7406 16.1536 27.0736 17.1049 27.0736 18.1989C27.0736 18.9051 27.4286 19.5978 28.1564 19.5978C28.6799 19.5978 28.9702 19.238 28.9702 19.238L28.9319 19.5453H29.7828L30.45 15.4459ZM5.35717 15.4579L4.65937 19.5672H5.50046L6.03204 16.4686L6.11079 19.5672H6.71233L7.83454 16.4686L7.33687 19.5672H8.23046L8.91954 15.4579H7.53704L6.67625 17.979L6.63141 15.458H5.3572L5.35717 15.4579ZM14.1444 15.7248C14.1254 15.7439 13.6358 18.5671 13.6358 18.9109C13.6358 19.42 13.9211 19.6474 14.3227 19.6437C14.6104 19.6413 14.8332 19.569 14.9362 19.5387C14.947 19.5358 14.968 19.53 14.968 19.53L15.0762 18.795C15.0174 18.795 14.9306 18.8202 14.8542 18.8202C14.5544 18.8202 14.5212 18.6607 14.5403 18.5423L14.782 17.0428H15.2381L15.3486 16.2301H14.9187L15.0062 15.7248H14.1444ZM24.3108 16.1383C23.7237 16.1383 23.2739 16.3319 23.2739 16.3319L23.1492 17.0866C23.1492 17.0866 23.5207 16.9323 24.0822 16.9323C24.401 16.9323 24.6345 16.9688 24.6345 17.2342C24.6345 17.3954 24.6061 17.4552 24.6061 17.4552C24.6061 17.4552 24.354 17.4333 24.2375 17.4333C23.4972 17.4333 22.7194 17.7577 22.7194 18.7337C22.7194 19.5028 23.23 19.6787 23.5462 19.6787C24.1503 19.6787 24.4107 19.2775 24.4245 19.2762L24.3961 19.6109H25.1497L25.4866 17.1959C25.4867 16.1712 24.6139 16.1382 24.3108 16.1382V16.1383ZM10.174 16.1427C9.58485 16.1427 9.13279 16.3362 9.13279 16.3362L9.00812 17.0909C9.00812 17.0909 9.38087 16.9367 9.94437 16.9367C10.2643 16.9367 10.4989 16.9733 10.4989 17.2386C10.4989 17.3997 10.4705 17.4595 10.4705 17.4595C10.4705 17.4595 10.2177 17.4377 10.1008 17.4377C9.35763 17.4377 8.5772 17.7616 8.5772 18.737C8.5772 19.5056 9.08883 19.682 9.40625 19.682C10.0125 19.682 10.2739 19.2807 10.2878 19.2795L10.2594 19.6142H11.0162L11.3542 17.2003C11.3542 16.1762 10.4783 16.1426 10.174 16.1426V16.1427ZM12.8472 16.1427C12.2145 16.1427 11.5719 16.398 11.5719 17.2703C11.5719 18.2586 12.6427 18.1588 12.6427 18.5751C12.6427 18.853 12.3438 18.8759 12.1133 18.8759C11.7143 18.8759 11.3555 18.7381 11.3542 18.7447L11.2394 19.4994C11.26 19.5058 11.4822 19.6054 12.1997 19.6054C12.3923 19.6054 13.4936 19.6544 13.4936 18.5073C13.4936 17.435 12.4742 17.6475 12.4742 17.2167C12.4742 17.0022 12.6397 16.9345 12.9434 16.9345C13.064 16.9345 13.5286 16.9728 13.5286 16.9728L13.6358 16.2104C13.6358 16.2106 13.336 16.1427 12.8472 16.1427ZM16.8022 16.1427C15.923 16.1428 15.272 17.0882 15.272 18.1562C15.272 19.3889 16.0876 19.682 16.7825 19.682C17.4239 19.682 17.7067 19.5387 17.7067 19.5387L17.8598 18.6977C17.8598 18.6977 17.3719 18.912 16.9312 18.912C15.9923 18.912 16.1569 18.2131 16.1569 18.2131H17.9342C17.9342 18.2131 18.0491 17.6483 18.0491 17.4179C18.0491 16.8432 17.7622 16.1427 16.8022 16.1427ZM19.9861 16.1787C19.59 16.1787 19.2959 16.7114 19.2959 16.7114L19.3747 16.2225H18.5522L17.9999 19.5978H18.9087C19.1662 18.1564 19.2132 16.9861 19.8275 17.2003C19.935 16.6424 20.0394 16.4269 20.1567 16.1908C20.1567 16.1908 20.1016 16.1787 19.9861 16.1787ZM27.3503 16.1787C26.9542 16.1787 26.6602 16.7114 26.6602 16.7114L26.7389 16.2225H25.9164L25.364 19.5978H26.2719C26.5294 18.1564 26.5776 16.9861 27.1917 17.2003C27.2994 16.6424 27.4037 16.4269 27.521 16.1908C27.521 16.1908 27.4658 16.1787 27.3503 16.1787ZM16.7978 16.9039C17.2971 16.9039 17.2058 17.4675 17.2058 17.5131H16.2225C16.2225 17.4549 16.3155 16.9039 16.7978 16.9039ZM28.6792 16.9695C28.997 16.9694 29.1605 17.1841 29.1605 17.6892C29.1605 18.1475 28.9294 18.76 28.4506 18.76C28.1329 18.76 27.9836 18.4976 27.9836 18.0862C27.9836 17.4136 28.2913 16.9695 28.6792 16.9695ZM24.3119 18.1179C24.4415 18.1181 24.4683 18.1307 24.4902 18.1366C24.487 18.136 24.4864 18.1366 24.4989 18.1387C24.5153 18.2891 24.4081 18.9941 23.8897 18.9941C23.6224 18.9941 23.5539 18.7815 23.5539 18.6561C23.5539 18.4115 23.6812 18.1179 24.3119 18.1179ZM10.1752 18.1212C10.3224 18.1214 10.3385 18.1379 10.3633 18.142C10.3797 18.2923 10.2721 18.9962 9.75187 18.9962C9.48353 18.9962 9.41391 18.7847 9.41391 18.6594C9.41391 18.4149 9.54201 18.1212 10.1752 18.1212Z" fill="#EAE0E0"/>
</g>
<defs>
<clipPath id="clip0_129_86">
<rect width="35" height="35" fill="white"/>
</clipPath>
</defs>
</svg>
