<svg width="35" height="35" viewBox="0 0 35 35" fill="none" xmlns="http://www.w3.org/2000/svg">
<path d="M16.2094 24.0319C15.8576 24.0357 15.5181 23.903 15.2626 23.6619C15.0071 23.4208 14.8555 23.0902 14.84 22.7398C14.8371 22.6786 14.8313 22.5138 14.6898 22.5138C14.6315 22.5138 14.5819 22.5473 14.525 22.5998C14.3617 22.75 14.1546 22.9003 13.8542 22.9003C13.7011 22.897 13.55 22.8643 13.4094 22.804C12.6292 22.4919 12.619 21.9611 12.6496 21.7467C12.6583 21.6913 12.6598 21.63 12.6204 21.5863L12.5737 21.5425H12.5242C12.4848 21.5425 12.444 21.56 12.3885 21.5994C12.1977 21.7442 11.9662 21.8258 11.7265 21.8328C11.6 21.8315 11.4749 21.8067 11.3575 21.7598C10.325 21.3661 10.4096 20.4065 10.4577 20.1178C10.4655 20.0575 10.4509 20.0128 10.414 19.9836L10.341 19.9253L10.2725 19.988C10.0747 20.1779 9.81068 20.284 9.53604 20.284C9.25395 20.2848 8.98308 20.1739 8.78293 19.9756C8.58278 19.7774 8.4697 19.508 8.46854 19.2267C8.46854 18.6434 8.94688 18.1738 9.53604 18.1738C10.0669 18.1738 10.5204 18.5675 10.5875 19.0925L10.6254 19.3769L10.7858 19.1363C10.8004 19.11 11.2335 18.4655 12.0283 18.4655C12.1771 18.4655 12.3346 18.4888 12.4892 18.5384C13.1221 18.728 13.23 19.2967 13.246 19.53C13.2577 19.6671 13.3554 19.6759 13.3773 19.6759C13.4313 19.6759 13.4706 19.6409 13.4983 19.6103C13.6006 19.5054 13.7231 19.4223 13.8585 19.366C13.9938 19.3096 14.1392 19.2811 14.2858 19.2821C14.4735 19.2821 14.6689 19.3259 14.8721 19.4134C15.8783 19.8407 15.4248 21.1021 15.4175 21.1153C15.3329 21.3253 15.3285 21.4171 15.4102 21.4711L15.4496 21.49H15.4788C15.5225 21.49 15.5808 21.4696 15.6742 21.439C15.8098 21.3923 16.0169 21.3223 16.2094 21.3223C16.5705 21.3238 16.9165 21.4668 17.1729 21.7205C17.4293 21.9742 17.5756 22.3183 17.5802 22.6786C17.5779 23.0393 17.4323 23.3844 17.1753 23.6381C16.9183 23.8918 16.5709 24.0335 16.2094 24.0319ZM26.8581 17.9492C25.1985 16.52 21.3631 13.2242 20.3233 12.4513C19.7313 12.0109 19.3244 11.7775 18.97 11.674C18.7546 11.6073 18.5305 11.5729 18.305 11.5719C18.0386 11.5719 17.7567 11.6181 17.4592 11.7105C16.7883 11.9219 16.1204 12.4469 15.4729 12.9559L15.4394 12.9821C14.8356 13.4546 14.2144 13.9446 13.7419 14.0467C13.5361 14.0932 13.3258 14.1172 13.1148 14.1182C12.5869 14.1182 12.1129 13.9665 11.9335 13.7419C11.9044 13.7059 11.9238 13.6452 11.9919 13.5596L12.0035 13.548L13.4619 11.9919C14.6038 10.8632 15.6858 9.79567 18.1723 9.73879H18.2962C19.845 9.73879 21.3879 10.4228 21.5629 10.503C22.9493 11.1879 24.4732 11.5489 26.0196 11.5588C27.5887 11.5588 29.2104 11.1753 30.9108 10.3994C30.7184 10.2398 30.5214 10.0857 30.3202 9.93713C28.8254 10.5788 27.3992 10.8996 26.024 10.8996C24.621 10.8996 23.2167 10.5657 21.856 9.90796C21.7831 9.87588 20.0769 9.08108 18.2977 9.07671C18.2501 9.07671 18.2034 9.07768 18.1577 9.07963C16.0665 9.12775 14.891 9.86129 14.1006 10.503C13.3306 10.5219 12.6685 10.7042 12.0765 10.8675C11.55 11.0134 11.095 11.1388 10.6488 11.1373C10.4665 11.1373 10.1383 11.1228 10.1092 11.1198C9.59875 11.1053 7.02479 10.4825 4.97875 9.71692C4.77167 9.86275 4.56993 10.0134 4.37354 10.169C6.51146 11.0338 9.11312 11.7046 9.93271 11.7571C10.1617 11.7717 10.4038 11.7965 10.6488 11.7965C11.1913 11.7965 11.7338 11.6463 12.2588 11.5005C12.5694 11.4144 12.9092 11.3211 13.2679 11.2525L12.9821 11.5355L11.499 13.1207C11.3823 13.2373 11.1285 13.5494 11.2948 13.933C11.3815 14.1093 11.5171 14.2571 11.6856 14.3588C12.04 14.595 12.6729 14.7525 13.2606 14.754C13.4842 14.754 13.6933 14.7326 13.8877 14.6898C14.5104 14.5513 15.1623 14.0365 15.855 13.494C16.4048 13.0623 17.1865 12.514 17.7844 12.3536C17.9605 12.3069 18.1417 12.2824 18.324 12.2807C18.3703 12.2795 18.4166 12.2819 18.4625 12.288C18.8563 12.3375 19.2398 12.4703 19.9252 12.9763C21.1429 13.8805 26.5329 18.5398 26.584 18.585C26.5869 18.588 26.931 18.8811 26.9048 19.3682C26.8946 19.6394 26.7444 19.8815 26.476 20.0478C26.2666 20.1865 26.0216 20.2624 25.7702 20.2665C25.5492 20.2661 25.3329 20.2034 25.146 20.0857C25.1256 20.0711 23.2794 18.3984 22.5998 17.8355C22.4919 17.748 22.3869 17.6678 22.279 17.6678C22.2522 17.6672 22.2256 17.6729 22.2013 17.6843C22.177 17.6956 22.1557 17.7124 22.139 17.7334C22.0325 17.8646 22.1535 18.0425 22.2921 18.1621L24.4504 20.3059C24.4533 20.3059 24.7188 20.5538 24.7479 20.8819C24.7644 21.2387 24.5943 21.5333 24.2375 21.7657C24.012 21.9223 23.7451 22.0091 23.4704 22.015C23.2525 22.0142 23.0396 21.9498 22.8579 21.8298L22.5458 21.5294C22.0383 21.0207 21.513 20.5299 20.9708 20.058C20.8658 19.9734 20.755 19.8946 20.6485 19.8946C20.6231 19.8942 20.5979 19.8989 20.5744 19.9084C20.5508 19.9179 20.5294 19.9321 20.5115 19.95C20.4633 20.004 20.4298 20.1003 20.5523 20.2592C20.5854 20.3024 20.622 20.3429 20.6617 20.3803L22.2338 22.1273C22.2483 22.1419 22.5575 22.5065 22.2688 22.8725L22.2133 22.9425C22.1675 22.992 22.1188 23.0388 22.0675 23.0825C21.7992 23.3013 21.4404 23.3217 21.299 23.3217C21.2271 23.3225 21.1553 23.3166 21.0846 23.3042C20.929 23.278 20.826 23.2347 20.7754 23.1744L20.7565 23.1555C20.669 23.068 19.8785 22.2673 19.2194 21.7263C19.1333 21.6534 19.0254 21.5659 18.9131 21.5659C18.8868 21.5658 18.8608 21.5712 18.8367 21.5818C18.8126 21.5923 18.7909 21.6078 18.7731 21.6271C18.6419 21.7671 18.8373 21.9771 18.919 22.0544L20.2606 23.5171C20.25 23.5499 20.2337 23.5805 20.2125 23.6075C20.1644 23.6717 20.0025 23.8336 19.514 23.8934C19.4549 23.9007 19.3955 23.9042 19.336 23.9036C18.8329 23.9036 18.2977 23.6644 18.0206 23.5186C18.1456 23.2561 18.2104 22.9692 18.2102 22.6786C18.2088 22.4117 18.1537 22.1477 18.048 21.9025C17.9423 21.6573 17.7883 21.4358 17.5951 21.2512C17.4019 21.0665 17.1735 20.9226 16.9234 20.8278C16.6733 20.7331 16.4067 20.6895 16.1394 20.6996C16.1744 20.2009 16.1029 19.2559 15.1229 18.8417C14.8588 18.7246 14.5734 18.6625 14.2844 18.6594C14.0705 18.6594 13.8663 18.6959 13.6719 18.7688C13.4671 18.3767 13.1155 18.0811 12.6933 17.9463C12.4617 17.8655 12.2183 17.8236 11.9729 17.8223C11.5636 17.8223 11.1908 17.94 10.8544 18.1753C10.6952 17.98 10.4944 17.8224 10.2667 17.7139C10.0389 17.6055 9.78987 17.5489 9.5375 17.5482C9.09018 17.5488 8.66091 17.7242 8.34167 18.0367C7.92312 17.7203 6.26354 16.6805 1.82729 15.6844C1.48904 15.5995 1.15258 15.5076 0.818125 15.4088C0.768252 15.6468 0.730771 15.8873 0.705833 16.1292L1.68292 16.3582C6.21542 17.3528 7.71458 18.3867 7.96688 18.5821C7.8806 18.7861 7.83598 19.0053 7.83563 19.2267C7.83678 19.4747 7.89263 19.7194 7.99922 19.9434C8.10581 20.1675 8.26052 20.3653 8.45236 20.5229C8.64419 20.6805 8.86844 20.7939 9.10917 20.8552C9.3499 20.9165 9.6012 20.9242 9.84521 20.8775C9.98521 21.5586 10.4373 22.0748 11.1271 22.3403C11.32 22.4156 11.5251 22.4552 11.7323 22.4569C11.8635 22.4569 11.9928 22.4404 12.1202 22.4073C12.2456 22.7282 12.5315 23.1263 13.1731 23.3815C13.3845 23.4691 13.6107 23.5156 13.8396 23.5186C14.0175 23.5186 14.1901 23.488 14.3573 23.4267C14.51 23.7906 14.7672 24.1013 15.0965 24.3195C15.4258 24.5378 15.8126 24.6539 16.2079 24.6532C16.7475 24.6561 17.2667 24.4388 17.6444 24.0553C17.9667 24.2317 18.6477 24.5525 19.3404 24.5525C19.4279 24.5535 19.513 24.5487 19.5956 24.538C20.281 24.4519 20.6004 24.188 20.7463 23.9809C20.7726 23.9449 20.796 23.9069 20.8163 23.8671C20.9767 23.9138 21.1575 23.9517 21.3602 23.9517C21.7321 23.9517 22.0908 23.8263 22.454 23.5653C22.8098 23.3115 23.0635 22.9469 23.1015 22.6363V22.6217C23.223 22.647 23.345 22.6596 23.4675 22.6596C23.854 22.6596 24.236 22.54 24.5948 22.3067C25.2948 21.8546 25.4144 21.264 25.4027 20.8775C25.6473 20.9281 25.8996 20.9292 26.1445 20.8806C26.3895 20.832 26.6223 20.7347 26.829 20.5946C27.0359 20.4706 27.2103 20.299 27.3376 20.0941C27.4649 19.8891 27.5415 19.6568 27.561 19.4163C27.5863 19.0822 27.5046 18.7488 27.3277 18.464C28.5002 17.9653 31.1719 17.0013 34.3204 16.3013C34.3005 16.0606 34.2679 15.8211 34.2227 15.5838C31.6983 16.135 29.2327 16.9261 26.8596 17.9463L26.8581 17.9492ZM34.3292 16.8365C34.3292 22.7092 26.7954 27.4721 17.5044 27.4721C8.21333 27.4721 0.678125 22.7092 0.678125 16.8365C0.678125 10.9638 8.21042 6.20088 17.5058 6.20088C26.7969 6.20088 34.3292 10.9623 34.3292 16.8365ZM35 16.8423C35 10.6123 27.1629 5.53296 17.5 5.53296C7.83708 5.53296 0.00291667 10.6123 0.00291667 16.8438L0 17.5059C0 24.1165 6.84687 29.4686 17.4985 29.4686C28.2129 29.4686 34.9985 24.1165 34.9985 17.5044L35 16.8423Z" fill="#EAE0E0"/>
</svg>
