<svg width="28" height="28" viewBox="0 0 28 28" fill="none" xmlns="http://www.w3.org/2000/svg">
<path d="M25.0677 23.2969C23.3385 20.3088 20.6238 18.212 17.4694 17.3228C19.003 16.5432 20.2294 15.2699 20.9507 13.7081C21.6721 12.1462 21.8464 10.387 21.4456 8.71397C21.0448 7.04095 20.0922 5.55167 18.7414 4.48629C17.3906 3.4209 15.7204 2.84149 14 2.84149C12.2797 2.84149 10.6095 3.4209 9.25868 4.48629C7.9079 5.55167 6.9553 7.04095 6.55449 8.71397C6.15367 10.387 6.328 12.1462 7.04936 13.7081C7.77072 15.2699 8.99707 16.5432 10.5307 17.3228C7.37629 18.2109 4.66161 20.3077 2.93239 23.2969C2.8849 23.3716 2.85302 23.4551 2.83866 23.5424C2.82429 23.6298 2.82774 23.7191 2.8488 23.8051C2.86986 23.891 2.90808 23.9719 2.96119 24.0427C3.01429 24.1135 3.08116 24.1728 3.15779 24.2171C3.23442 24.2614 3.31921 24.2897 3.40707 24.3004C3.49494 24.3111 3.58405 24.3039 3.66905 24.2792C3.75405 24.2545 3.83319 24.2129 3.9017 24.1569C3.97021 24.1009 4.02667 24.0316 4.0677 23.9531C6.16879 20.323 9.88098 18.1563 14 18.1563C18.1191 18.1563 21.8313 20.323 23.9324 23.9531C23.9734 24.0316 24.0299 24.1009 24.0984 24.1569C24.1669 24.2129 24.246 24.2545 24.331 24.2792C24.416 24.3039 24.5051 24.3111 24.593 24.3004C24.6809 24.2897 24.7657 24.2614 24.8423 24.2171C24.9189 24.1728 24.9858 24.1135 25.0389 24.0427C25.092 23.9719 25.1302 23.891 25.1513 23.8051C25.1723 23.7191 25.1758 23.6298 25.1614 23.5424C25.1471 23.4551 25.1152 23.3716 25.0677 23.2969ZM7.65629 10.5C7.65629 9.24533 8.02835 8.01883 8.72541 6.9756C9.42247 5.93238 10.4132 5.11928 11.5724 4.63914C12.7316 4.159 14.0071 4.03337 15.2376 4.27814C16.4682 4.52292 17.5986 5.1271 18.4858 6.01429C19.3729 6.90148 19.9771 8.03183 20.2219 9.2624C20.4667 10.493 20.341 11.7685 19.8609 12.9276C19.3808 14.0868 18.5677 15.0776 17.5244 15.7746C16.4812 16.4717 15.2547 16.8438 14 16.8438C12.3182 16.8417 10.7058 16.1727 9.51657 14.9835C8.32733 13.7942 7.65832 12.1818 7.65629 10.5Z" fill="#555555"/>
</svg>
