<svg width="35" height="35" viewBox="0 0 35 35" fill="none" xmlns="http://www.w3.org/2000/svg">
<g clip-path="url(#clip0_129_73)">
<path d="M32.4071 22.995L32.079 21.3544H28.4127L27.8294 22.9833L24.8908 22.9892C26.7794 18.4494 28.1823 15.0879 29.0967 12.9019C29.3358 12.3302 29.7602 12.0386 30.3858 12.0429C30.8642 12.0473 31.6444 12.0473 32.7279 12.0444L35 22.9906L32.4071 22.995ZM29.2367 19.1071H31.6006L30.7183 14.9946L29.2367 19.1071ZM10.2987 12.0415L13.2533 12.0444L8.68583 22.9965L5.69479 22.9935C4.94266 20.1007 4.19988 17.2054 3.46646 14.3077C3.32063 13.7302 3.03188 13.3263 2.47625 13.1352C1.65454 12.8607 0.82904 12.5977 0 12.3463L0 12.0444H4.72062C5.53729 12.0444 6.01417 12.4396 6.16729 13.2504C6.32188 14.0627 6.70979 16.1321 7.33396 19.4542L10.2987 12.0415ZM17.3133 12.0444L14.9785 22.995L12.1654 22.9906L14.4958 12.0415L17.3133 12.0444ZM23.0154 11.8417C23.8569 11.8417 24.9171 12.1042 25.5267 12.3463L25.0338 14.6154C24.4825 14.3938 23.5754 14.0948 22.8127 14.105C21.7044 14.124 21.019 14.5892 21.019 15.0354C21.019 15.7617 22.209 16.1277 23.434 16.921C24.831 17.8252 25.0163 18.6375 24.9988 19.5213C24.9798 21.3515 23.434 23.1583 20.1731 23.1583C18.6856 23.1365 18.149 23.0125 16.9356 22.5808L17.449 20.2125C18.6842 20.7288 19.2077 20.8935 20.2635 20.8935C21.2304 20.8935 22.0602 20.5027 22.0675 19.8217C22.0733 19.3375 21.7758 19.0969 20.6908 18.499C19.6058 17.8996 18.0833 17.0713 18.1038 15.4044C18.1285 13.2723 20.1483 11.8417 23.0154 11.8417Z" fill="#EAE0E0"/>
</g>
<defs>
<clipPath id="clip0_129_73">
<rect width="35" height="35" fill="white"/>
</clipPath>
</defs>
</svg>
